<mxfile host="65bd71144e">
    <diagram id="f80wceaOMM6J7gSQPoZw" name="Page-1">
        <mxGraphModel dx="2251" dy="662" grid="1" gridSize="10" guides="1" tooltips="1" connect="1" arrows="1" fold="1" page="1" pageScale="1" pageWidth="850" pageHeight="1100" math="0" shadow="0">
            <root>
                <mxCell id="0"/>
                <mxCell id="1" parent="0"/>
                <mxCell id="2" value="Plant" style="whiteSpace=wrap;html=1;align=center;" parent="1" vertex="1">
                    <mxGeometry x="260" y="60" width="120" height="60" as="geometry"/>
                </mxCell>
                <mxCell id="3" value="Client" style="whiteSpace=wrap;html=1;align=center;" parent="1" vertex="1">
                    <mxGeometry x="685" y="150" width="100" height="40" as="geometry"/>
                </mxCell>
                <mxCell id="4" value="Staff" style="whiteSpace=wrap;html=1;align=center;" parent="1" vertex="1">
                    <mxGeometry x="90" y="550" width="100" height="40" as="geometry"/>
                </mxCell>
                <mxCell id="5" value="Branch" style="whiteSpace=wrap;html=1;align=center;" parent="1" vertex="1">
                    <mxGeometry x="705" y="540" width="100" height="40" as="geometry"/>
                </mxCell>
                <mxCell id="6" value="Registration" style="whiteSpace=wrap;html=1;align=center;" parent="1" vertex="1">
                    <mxGeometry x="400" y="320" width="100" height="40" as="geometry"/>
                </mxCell>
                <mxCell id="7" value="type" style="ellipse;whiteSpace=wrap;html=1;align=center;" parent="1" vertex="1">
                    <mxGeometry x="140" width="100" height="40" as="geometry"/>
                </mxCell>
                <mxCell id="8" value="plantNo" style="ellipse;whiteSpace=wrap;html=1;align=center;fontStyle=4;" parent="1" vertex="1">
                    <mxGeometry x="310" width="100" height="40" as="geometry"/>
                </mxCell>
                <mxCell id="19" value="" style="endArrow=none;html=1;rounded=0;exitX=1;exitY=1;exitDx=0;exitDy=0;entryX=0.25;entryY=0;entryDx=0;entryDy=0;" parent="1" source="8" target="2" edge="1">
                    <mxGeometry relative="1" as="geometry">
                        <mxPoint x="145" y="90" as="sourcePoint"/>
                        <mxPoint x="305" y="90" as="targetPoint"/>
                    </mxGeometry>
                </mxCell>
                <mxCell id="26" value="" style="endArrow=none;html=1;rounded=0;exitX=1;exitY=0.5;exitDx=0;exitDy=0;entryX=0;entryY=0.5;entryDx=0;entryDy=0;" parent="1" source="7" target="2" edge="1">
                    <mxGeometry relative="1" as="geometry">
                        <mxPoint x="200.35533905932743" y="54.14213562373095" as="sourcePoint"/>
                        <mxPoint x="215" y="90" as="targetPoint"/>
                    </mxGeometry>
                </mxCell>
                <mxCell id="27" value="fName" style="ellipse;whiteSpace=wrap;html=1;align=center;" parent="1" vertex="1">
                    <mxGeometry x="625" y="60" width="100" height="40" as="geometry"/>
                </mxCell>
                <mxCell id="28" value="lName" style="ellipse;whiteSpace=wrap;html=1;align=center;" parent="1" vertex="1">
                    <mxGeometry x="765" y="60" width="100" height="40" as="geometry"/>
                </mxCell>
                <mxCell id="29" value="clientNo" style="ellipse;whiteSpace=wrap;html=1;align=center;fontStyle=4;" parent="1" vertex="1">
                    <mxGeometry x="540" y="180" width="100" height="40" as="geometry"/>
                </mxCell>
                <mxCell id="30" value="sex" style="ellipse;whiteSpace=wrap;html=1;align=center;" parent="1" vertex="1">
                    <mxGeometry x="815" y="150" width="100" height="40" as="geometry"/>
                </mxCell>
                <mxCell id="31" value="telNo" style="ellipse;whiteSpace=wrap;html=1;align=center;" parent="1" vertex="1">
                    <mxGeometry x="745" y="230" width="100" height="40" as="geometry"/>
                </mxCell>
                <mxCell id="33" value="" style="endArrow=none;html=1;rounded=0;exitX=1;exitY=0.5;exitDx=0;exitDy=0;entryX=0;entryY=1;entryDx=0;entryDy=0;" parent="1" source="29" target="3" edge="1">
                    <mxGeometry relative="1" as="geometry">
                        <mxPoint x="625" y="280" as="sourcePoint"/>
                        <mxPoint x="785" y="280" as="targetPoint"/>
                    </mxGeometry>
                </mxCell>
                <mxCell id="34" value="" style="endArrow=none;html=1;rounded=0;exitX=0.5;exitY=0;exitDx=0;exitDy=0;entryX=0.5;entryY=1;entryDx=0;entryDy=0;" parent="1" source="31" target="3" edge="1">
                    <mxGeometry relative="1" as="geometry">
                        <mxPoint x="645" y="220" as="sourcePoint"/>
                        <mxPoint x="695" y="200" as="targetPoint"/>
                    </mxGeometry>
                </mxCell>
                <mxCell id="35" value="" style="endArrow=none;html=1;rounded=0;exitX=0.5;exitY=1;exitDx=0;exitDy=0;entryX=0.25;entryY=0;entryDx=0;entryDy=0;" parent="1" source="27" target="3" edge="1">
                    <mxGeometry relative="1" as="geometry">
                        <mxPoint x="655" y="230" as="sourcePoint"/>
                        <mxPoint x="705" y="210" as="targetPoint"/>
                    </mxGeometry>
                </mxCell>
                <mxCell id="36" value="" style="endArrow=none;html=1;rounded=0;exitX=0.5;exitY=0;exitDx=0;exitDy=0;entryX=0.5;entryY=1;entryDx=0;entryDy=0;" parent="1" source="3" target="28" edge="1">
                    <mxGeometry relative="1" as="geometry">
                        <mxPoint x="665" y="240" as="sourcePoint"/>
                        <mxPoint x="715" y="220" as="targetPoint"/>
                    </mxGeometry>
                </mxCell>
                <mxCell id="37" value="" style="endArrow=none;html=1;rounded=0;exitX=1;exitY=0.5;exitDx=0;exitDy=0;entryX=0;entryY=1;entryDx=0;entryDy=0;" parent="1" source="3" target="30" edge="1">
                    <mxGeometry relative="1" as="geometry">
                        <mxPoint x="675" y="250" as="sourcePoint"/>
                        <mxPoint x="725" y="230" as="targetPoint"/>
                    </mxGeometry>
                </mxCell>
                <mxCell id="38" value="branchNo" style="ellipse;whiteSpace=wrap;html=1;align=center;fontStyle=4;" parent="1" vertex="1">
                    <mxGeometry x="830" y="470" width="100" height="40" as="geometry"/>
                </mxCell>
                <mxCell id="39" value="" style="endArrow=none;html=1;rounded=0;exitX=0.75;exitY=0;exitDx=0;exitDy=0;entryX=0.5;entryY=1;entryDx=0;entryDy=0;" parent="1" source="5" target="38" edge="1">
                    <mxGeometry relative="1" as="geometry">
                        <mxPoint x="895" y="400" as="sourcePoint"/>
                        <mxPoint x="905" y="360" as="targetPoint"/>
                    </mxGeometry>
                </mxCell>
                <mxCell id="40" value="street" style="ellipse;whiteSpace=wrap;html=1;align=center;" parent="1" vertex="1">
                    <mxGeometry x="835" y="550" width="100" height="40" as="geometry"/>
                </mxCell>
                <mxCell id="41" value="postcode" style="ellipse;whiteSpace=wrap;html=1;align=center;" parent="1" vertex="1">
                    <mxGeometry x="735" y="600" width="100" height="40" as="geometry"/>
                </mxCell>
                <mxCell id="42" value="city" style="ellipse;whiteSpace=wrap;html=1;align=center;" parent="1" vertex="1">
                    <mxGeometry x="675" y="460" width="100" height="40" as="geometry"/>
                </mxCell>
                <mxCell id="43" value="" style="endArrow=none;html=1;rounded=0;exitX=1;exitY=0.25;exitDx=0;exitDy=0;entryX=0;entryY=0;entryDx=0;entryDy=0;" parent="1" source="5" target="40" edge="1">
                    <mxGeometry relative="1" as="geometry">
                        <mxPoint x="790" y="550" as="sourcePoint"/>
                        <mxPoint x="835" y="530" as="targetPoint"/>
                    </mxGeometry>
                </mxCell>
                <mxCell id="44" value="" style="endArrow=none;html=1;rounded=0;exitX=0.75;exitY=1;exitDx=0;exitDy=0;entryX=0.5;entryY=0;entryDx=0;entryDy=0;" parent="1" source="5" target="41" edge="1">
                    <mxGeometry relative="1" as="geometry">
                        <mxPoint x="800" y="560" as="sourcePoint"/>
                        <mxPoint x="845" y="540" as="targetPoint"/>
                    </mxGeometry>
                </mxCell>
                <mxCell id="45" value="" style="endArrow=none;html=1;rounded=0;exitX=0.5;exitY=1;exitDx=0;exitDy=0;" parent="1" source="42" edge="1">
                    <mxGeometry relative="1" as="geometry">
                        <mxPoint x="810" y="570" as="sourcePoint"/>
                        <mxPoint x="730" y="540" as="targetPoint"/>
                    </mxGeometry>
                </mxCell>
                <mxCell id="46" value="staffNo" style="ellipse;whiteSpace=wrap;html=1;align=center;fontStyle=4;" parent="1" vertex="1">
                    <mxGeometry x="250" y="480" width="100" height="40" as="geometry"/>
                </mxCell>
                <mxCell id="47" value="fName" style="ellipse;whiteSpace=wrap;html=1;align=center;" parent="1" vertex="1">
                    <mxGeometry x="280" y="590" width="100" height="40" as="geometry"/>
                </mxCell>
                <mxCell id="48" value="lName" style="ellipse;whiteSpace=wrap;html=1;align=center;" parent="1" vertex="1">
                    <mxGeometry x="140" y="620" width="100" height="40" as="geometry"/>
                </mxCell>
                <mxCell id="49" value="position" style="ellipse;whiteSpace=wrap;html=1;align=center;" parent="1" vertex="1">
                    <mxGeometry x="-15" y="610" width="100" height="40" as="geometry"/>
                </mxCell>
                <mxCell id="50" value="sex" style="ellipse;whiteSpace=wrap;html=1;align=center;" parent="1" vertex="1">
                    <mxGeometry x="-10" y="480" width="100" height="40" as="geometry"/>
                </mxCell>
                <mxCell id="51" value="salary" style="ellipse;whiteSpace=wrap;html=1;align=center;" parent="1" vertex="1">
                    <mxGeometry x="-90" y="550" width="100" height="40" as="geometry"/>
                </mxCell>
                <mxCell id="54" value="" style="endArrow=none;html=1;rounded=0;exitX=0.25;exitY=0;exitDx=0;exitDy=0;entryX=0.5;entryY=1;entryDx=0;entryDy=0;" parent="1" source="4" target="50" edge="1">
                    <mxGeometry relative="1" as="geometry">
                        <mxPoint x="203.03999999999996" y="282" as="sourcePoint"/>
                        <mxPoint x="180" y="330" as="targetPoint"/>
                    </mxGeometry>
                </mxCell>
                <mxCell id="57" value="" style="endArrow=none;html=1;rounded=0;exitX=0.75;exitY=0;exitDx=0;exitDy=0;entryX=0;entryY=1;entryDx=0;entryDy=0;" parent="1" source="4" target="46" edge="1">
                    <mxGeometry relative="1" as="geometry">
                        <mxPoint x="145" y="550" as="sourcePoint"/>
                        <mxPoint x="110" y="520" as="targetPoint"/>
                    </mxGeometry>
                </mxCell>
                <mxCell id="58" value="" style="endArrow=none;html=1;rounded=0;exitX=0;exitY=0.5;exitDx=0;exitDy=0;entryX=1;entryY=0.5;entryDx=0;entryDy=0;" parent="1" source="47" target="4" edge="1">
                    <mxGeometry relative="1" as="geometry">
                        <mxPoint x="155" y="560" as="sourcePoint"/>
                        <mxPoint x="120" y="530" as="targetPoint"/>
                    </mxGeometry>
                </mxCell>
                <mxCell id="59" value="" style="endArrow=none;html=1;rounded=0;exitX=0.5;exitY=0;exitDx=0;exitDy=0;entryX=0.75;entryY=1;entryDx=0;entryDy=0;" parent="1" source="48" target="4" edge="1">
                    <mxGeometry relative="1" as="geometry">
                        <mxPoint x="165" y="570" as="sourcePoint"/>
                        <mxPoint x="190" y="580" as="targetPoint"/>
                    </mxGeometry>
                </mxCell>
                <mxCell id="60" value="" style="endArrow=none;html=1;rounded=0;exitX=0.5;exitY=1;exitDx=0;exitDy=0;entryX=1;entryY=0;entryDx=0;entryDy=0;" parent="1" source="4" target="49" edge="1">
                    <mxGeometry relative="1" as="geometry">
                        <mxPoint x="175" y="580" as="sourcePoint"/>
                        <mxPoint x="140" y="550" as="targetPoint"/>
                    </mxGeometry>
                </mxCell>
                <mxCell id="61" value="" style="endArrow=none;html=1;rounded=0;exitX=0;exitY=0.5;exitDx=0;exitDy=0;entryX=1;entryY=0.5;entryDx=0;entryDy=0;" parent="1" source="4" target="51" edge="1">
                    <mxGeometry relative="1" as="geometry">
                        <mxPoint x="185" y="590" as="sourcePoint"/>
                        <mxPoint x="150" y="560" as="targetPoint"/>
                    </mxGeometry>
                </mxCell>
                <mxCell id="62" value="Relationship" style="shape=rhombus;perimeter=rhombusPerimeter;whiteSpace=wrap;html=1;align=center;" parent="1" vertex="1">
                    <mxGeometry x="420" y="530" width="120" height="60" as="geometry"/>
                </mxCell>
                <mxCell id="65" value="" style="endArrow=none;html=1;rounded=0;exitX=0;exitY=0.5;exitDx=0;exitDy=0;entryX=1;entryY=0.5;entryDx=0;entryDy=0;" parent="1" source="5" target="62" edge="1">
                    <mxGeometry relative="1" as="geometry">
                        <mxPoint x="310" y="580" as="sourcePoint"/>
                        <mxPoint x="470" y="580" as="targetPoint"/>
                    </mxGeometry>
                </mxCell>
                <mxCell id="66" value="1" style="resizable=0;html=1;align=right;verticalAlign=bottom;" parent="65" connectable="0" vertex="1">
                    <mxGeometry x="1" relative="1" as="geometry"/>
                </mxCell>
                <mxCell id="68" value="" style="endArrow=none;html=1;rounded=0;exitX=1;exitY=0.5;exitDx=0;exitDy=0;entryX=0.069;entryY=0.533;entryDx=0;entryDy=0;entryPerimeter=0;" parent="1" source="4" target="62" edge="1">
                    <mxGeometry relative="1" as="geometry">
                        <mxPoint x="310" y="580" as="sourcePoint"/>
                        <mxPoint x="470" y="580" as="targetPoint"/>
                    </mxGeometry>
                </mxCell>
                <mxCell id="69" value="N" style="resizable=0;html=1;align=right;verticalAlign=bottom;" parent="68" connectable="0" vertex="1">
                    <mxGeometry x="1" relative="1" as="geometry"/>
                </mxCell>
                <mxCell id="70" value="" style="endArrow=none;html=1;rounded=0;exitX=0;exitY=0;exitDx=0;exitDy=0;entryX=0.5;entryY=0;entryDx=0;entryDy=0;" parent="1" source="6" target="4" edge="1">
                    <mxGeometry relative="1" as="geometry">
                        <mxPoint x="190" y="680" as="sourcePoint"/>
                        <mxPoint x="200" y="590" as="targetPoint"/>
                    </mxGeometry>
                </mxCell>
                <mxCell id="71" value="" style="endArrow=none;html=1;rounded=0;exitX=1;exitY=0;exitDx=0;exitDy=0;entryX=0;entryY=0;entryDx=0;entryDy=0;" parent="1" source="6" target="5" edge="1">
                    <mxGeometry relative="1" as="geometry">
                        <mxPoint x="415" y="760" as="sourcePoint"/>
                        <mxPoint x="710" y="540" as="targetPoint"/>
                    </mxGeometry>
                </mxCell>
                <mxCell id="72" value="" style="endArrow=none;html=1;rounded=0;exitX=0.5;exitY=0;exitDx=0;exitDy=0;entryX=0.5;entryY=1;entryDx=0;entryDy=0;" parent="1" source="6" target="3" edge="1">
                    <mxGeometry relative="1" as="geometry">
                        <mxPoint x="515" y="760" as="sourcePoint"/>
                        <mxPoint x="765" y="330" as="targetPoint"/>
                    </mxGeometry>
                </mxCell>
                <mxCell id="73" value="dateShopping" style="ellipse;whiteSpace=wrap;html=1;align=center;" parent="1" vertex="1">
                    <mxGeometry x="400" y="390" width="100" height="40" as="geometry"/>
                </mxCell>
                <mxCell id="74" value="" style="endArrow=none;html=1;rounded=0;exitX=0.5;exitY=1;exitDx=0;exitDy=0;entryX=0.5;entryY=0;entryDx=0;entryDy=0;" parent="1" source="6" target="73" edge="1">
                    <mxGeometry relative="1" as="geometry">
                        <mxPoint x="415" y="760" as="sourcePoint"/>
                        <mxPoint x="220" y="590" as="targetPoint"/>
                    </mxGeometry>
                </mxCell>
                <mxCell id="100" value="Lecture" style="whiteSpace=wrap;html=1;align=center;" parent="1" vertex="1">
                    <mxGeometry x="-35" y="280" width="120" height="60" as="geometry"/>
                </mxCell>
                <mxCell id="101" value="lectureNo" style="ellipse;whiteSpace=wrap;html=1;align=center;fontStyle=4;" parent="1" vertex="1">
                    <mxGeometry x="-190" y="250" width="100" height="40" as="geometry"/>
                </mxCell>
                <mxCell id="103" value="" style="endArrow=none;html=1;rounded=0;entryX=0;entryY=0;entryDx=0;entryDy=0;exitX=1;exitY=0.5;exitDx=0;exitDy=0;" parent="1" source="101" target="100" edge="1">
                    <mxGeometry relative="1" as="geometry">
                        <mxPoint x="230" y="50" as="sourcePoint"/>
                        <mxPoint x="390" y="50" as="targetPoint"/>
                    </mxGeometry>
                </mxCell>
                <mxCell id="106" value="Relationship" style="shape=rhombus;perimeter=rhombusPerimeter;whiteSpace=wrap;html=1;align=center;" parent="1" vertex="1">
                    <mxGeometry y="130" width="120" height="60" as="geometry"/>
                </mxCell>
                <mxCell id="108" value="" style="endArrow=none;html=1;rounded=0;entryX=0.5;entryY=0;entryDx=0;entryDy=0;exitX=0.25;exitY=1;exitDx=0;exitDy=0;" parent="1" source="2" target="106" edge="1">
                    <mxGeometry relative="1" as="geometry">
                        <mxPoint x="-120" y="180" as="sourcePoint"/>
                        <mxPoint x="140" y="90" as="targetPoint"/>
                    </mxGeometry>
                </mxCell>
                <mxCell id="109" value="1" style="resizable=0;html=1;align=right;verticalAlign=bottom;" parent="108" connectable="0" vertex="1">
                    <mxGeometry x="1" relative="1" as="geometry"/>
                </mxCell>
                <mxCell id="110" value="" style="endArrow=none;html=1;rounded=0;entryX=0.5;entryY=1;entryDx=0;entryDy=0;exitX=0.5;exitY=0;exitDx=0;exitDy=0;" parent="1" source="100" target="106" edge="1">
                    <mxGeometry relative="1" as="geometry">
                        <mxPoint x="-150" y="340" as="sourcePoint"/>
                        <mxPoint x="10" y="340" as="targetPoint"/>
                    </mxGeometry>
                </mxCell>
                <mxCell id="111" value="N" style="resizable=0;html=1;align=right;verticalAlign=bottom;" parent="110" connectable="0" vertex="1">
                    <mxGeometry x="1" relative="1" as="geometry">
                        <mxPoint x="15" y="20" as="offset"/>
                    </mxGeometry>
                </mxCell>
                <mxCell id="112" value="hora" style="ellipse;whiteSpace=wrap;html=1;align=center;" parent="1" vertex="1">
                    <mxGeometry x="125" y="320" width="100" height="40" as="geometry"/>
                </mxCell>
                <mxCell id="113" value="dia" style="ellipse;whiteSpace=wrap;html=1;align=center;" parent="1" vertex="1">
                    <mxGeometry x="115" y="230" width="100" height="40" as="geometry"/>
                </mxCell>
                <mxCell id="114" value="humedad" style="ellipse;whiteSpace=wrap;html=1;align=center;" parent="1" vertex="1">
                    <mxGeometry x="40" y="360" width="100" height="40" as="geometry"/>
                </mxCell>
                <mxCell id="115" value="temperatura" style="ellipse;whiteSpace=wrap;html=1;align=center;" parent="1" vertex="1">
                    <mxGeometry x="-100" y="380" width="100" height="40" as="geometry"/>
                </mxCell>
                <mxCell id="116" value="humedad_out" style="ellipse;whiteSpace=wrap;html=1;align=center;" parent="1" vertex="1">
                    <mxGeometry x="-190" y="320" width="100" height="40" as="geometry"/>
                </mxCell>
                <mxCell id="117" value="luz_solar" style="ellipse;whiteSpace=wrap;html=1;align=center;" parent="1" vertex="1">
                    <mxGeometry x="-115" y="190" width="100" height="40" as="geometry"/>
                </mxCell>
                <mxCell id="119" value="" style="endArrow=none;html=1;rounded=0;entryX=0.25;entryY=0;entryDx=0;entryDy=0;exitX=0.5;exitY=1;exitDx=0;exitDy=0;" parent="1" source="117" target="100" edge="1">
                    <mxGeometry relative="1" as="geometry">
                        <mxPoint x="-80" y="280" as="sourcePoint"/>
                        <mxPoint x="-25" y="290" as="targetPoint"/>
                    </mxGeometry>
                </mxCell>
                <mxCell id="120" value="" style="endArrow=none;html=1;rounded=0;entryX=0;entryY=0.5;entryDx=0;entryDy=0;exitX=1;exitY=0.5;exitDx=0;exitDy=0;" parent="1" source="116" target="100" edge="1">
                    <mxGeometry relative="1" as="geometry">
                        <mxPoint x="-70" y="290" as="sourcePoint"/>
                        <mxPoint x="-15" y="300" as="targetPoint"/>
                    </mxGeometry>
                </mxCell>
                <mxCell id="121" value="" style="endArrow=none;html=1;rounded=0;entryX=0.25;entryY=1;entryDx=0;entryDy=0;exitX=0.5;exitY=0;exitDx=0;exitDy=0;" parent="1" source="115" target="100" edge="1">
                    <mxGeometry relative="1" as="geometry">
                        <mxPoint x="-50" y="380" as="sourcePoint"/>
                        <mxPoint x="-5" y="310" as="targetPoint"/>
                    </mxGeometry>
                </mxCell>
                <mxCell id="122" value="" style="endArrow=none;html=1;rounded=0;entryX=0.5;entryY=0;entryDx=0;entryDy=0;exitX=0.75;exitY=1;exitDx=0;exitDy=0;" parent="1" source="100" target="114" edge="1">
                    <mxGeometry relative="1" as="geometry">
                        <mxPoint x="-50" y="310" as="sourcePoint"/>
                        <mxPoint x="5" y="320" as="targetPoint"/>
                    </mxGeometry>
                </mxCell>
                <mxCell id="123" value="" style="endArrow=none;html=1;rounded=0;entryX=0;entryY=0;entryDx=0;entryDy=0;exitX=1;exitY=0.5;exitDx=0;exitDy=0;" parent="1" source="100" target="112" edge="1">
                    <mxGeometry relative="1" as="geometry">
                        <mxPoint x="-40" y="320" as="sourcePoint"/>
                        <mxPoint x="15" y="330" as="targetPoint"/>
                    </mxGeometry>
                </mxCell>
                <mxCell id="124" value="" style="endArrow=none;html=1;rounded=0;entryX=0;entryY=0.5;entryDx=0;entryDy=0;exitX=1;exitY=0;exitDx=0;exitDy=0;" parent="1" source="100" target="113" edge="1">
                    <mxGeometry relative="1" as="geometry">
                        <mxPoint x="-30" y="330" as="sourcePoint"/>
                        <mxPoint x="25" y="340" as="targetPoint"/>
                    </mxGeometry>
                </mxCell>
                <mxCell id="126" value="" style="endArrow=none;html=1;rounded=0;entryX=0.25;entryY=0;entryDx=0;entryDy=0;exitX=0.75;exitY=1;exitDx=0;exitDy=0;" parent="1" source="2" target="6" edge="1">
                    <mxGeometry relative="1" as="geometry">
                        <mxPoint x="-20" y="340" as="sourcePoint"/>
                        <mxPoint x="35" y="350" as="targetPoint"/>
                    </mxGeometry>
                </mxCell>
            </root>
        </mxGraphModel>
    </diagram>
</mxfile>